<svg xmlns="http://www.w3.org/2000/svg" version="1.1" width="500px" height="500px" style="shape-rendering:geometricPrecision; text-rendering:geometricPrecision; image-rendering:optimizeQuality; fill-rule:evenodd; clip-rule:evenodd" xmlns:xlink="http://www.w3.org/1999/xlink">
<g><path style="opacity:1" fill="#fefefe" d="M -0.5,-0.5 C 166.167,-0.5 332.833,-0.5 499.5,-0.5C 499.5,166.167 499.5,332.833 499.5,499.5C 332.833,499.5 166.167,499.5 -0.5,499.5C -0.5,332.833 -0.5,166.167 -0.5,-0.5 Z"/></g>
<g><path style="opacity:1" fill="#feb50f" d="M 390.5,141.5 C 393.808,140.974 395.974,142.307 397,145.5C 401.037,178.436 396.037,210.102 382,240.5C 369.212,267.926 353.046,293.093 333.5,316C 340.165,316.419 346.498,315.085 352.5,312C 367.564,304.269 379.398,293.103 388,278.5C 390.604,273.678 392.604,268.678 394,263.5C 397.418,259.359 399.585,260.026 400.5,265.5C 396.491,283.349 387.491,298.183 373.5,310C 357.471,324.179 338.804,332.679 317.5,335.5C 301.182,357.661 283.182,378.495 263.5,398C 256.485,402.571 251.985,400.738 250,392.5C 249.668,375.482 250.168,358.482 251.5,341.5C 252.227,313.188 246.727,286.188 235,260.5C 232.394,255.565 229.394,250.898 226,246.5C 221.596,242.265 217.429,237.932 213.5,233.5C 215.55,232.337 217.55,232.504 219.5,234C 232.884,243.297 242.551,255.464 248.5,270.5C 253.499,268.36 258.166,265.526 262.5,262C 272.092,257.192 282.092,253.692 292.5,251.5C 294.956,251.753 296.956,252.753 298.5,254.5C 298.023,255.478 297.357,256.311 296.5,257C 282.66,260.538 270.494,267.038 260,276.5C 257.787,279.095 255.953,281.928 254.5,285C 262.884,311.204 266.051,338.037 264,365.5C 265.507,366.535 267.007,366.368 268.5,365C 289.238,342.604 308.071,318.771 325,293.5C 338.113,269.95 344.113,244.616 343,217.5C 342.145,202.586 336.811,189.586 327,178.5C 324.38,173.448 325.88,171.614 331.5,173C 334.63,175.128 337.463,177.628 340,180.5C 355.121,204.344 359.454,230.01 353,257.5C 362.448,249.291 369.448,239.291 374,227.5C 384.317,199.747 389.817,171.08 390.5,141.5 Z"/></g>
<g><path style="opacity:1" fill="#ffdb45" d="M 112.5,160.5 C 111.672,154.013 111.172,147.346 111,140.5C 109.989,139.663 108.822,139.33 107.5,139.5C 107.715,141.179 107.048,142.179 105.5,142.5C 105.316,139.679 106.649,138.012 109.5,137.5C 110.478,137.977 111.311,138.643 112,139.5C 112.5,146.492 112.666,153.492 112.5,160.5 Z"/></g>
<g><path style="opacity:1" fill="#feb70c" d="M 112.5,160.5 C 113.304,188.385 119.804,215.052 132,240.5C 134.961,245.292 138.461,249.625 142.5,253.5C 137.853,227.403 142.686,203.07 157,180.5C 160.468,176.189 164.635,172.855 169.5,170.5C 172.791,172.212 173.291,174.545 171,177.5C 158.423,191.341 152.589,207.674 153.5,226.5C 153.518,251.039 159.351,274.039 171,295.5C 185.564,319.731 202.064,342.564 220.5,364C 221.784,364.684 222.951,364.517 224,363.5C 223.324,341.929 225.824,320.762 231.5,300C 232.01,298.174 232.844,298.007 234,299.5C 236,302.833 238,306.167 240,309.5C 238.681,318.058 237.681,326.725 237,335.5C 236.667,352.833 236.333,370.167 236,387.5C 235.939,397.935 231.439,400.768 222.5,396C 204.955,375.567 188.621,354.234 173.5,332C 139.654,324.317 115.154,304.817 100,273.5C 98.0238,267.627 97.3571,261.627 98,255.5C 99.3333,254.167 100.667,254.167 102,255.5C 109.688,282.521 126.522,301.354 152.5,312C 154.833,312.667 157.167,312.667 159.5,312C 136.442,282.388 119.275,249.555 108,213.5C 102.86,190.902 101.527,168.235 104,145.5C 104.232,144.263 104.732,143.263 105.5,142.5C 107.048,142.179 107.715,141.179 107.5,139.5C 108.822,139.33 109.989,139.663 111,140.5C 111.172,147.346 111.672,154.013 112.5,160.5 Z"/></g>
</svg>
